<?xml version="1.0" encoding="UTF-8" standalone="no"?>
<!-- Created with Inkscape (http://www.inkscape.org/) -->

<svg
   xmlns:dc="http://purl.org/dc/elements/1.1/"
   xmlns:cc="http://creativecommons.org/ns#"
   xmlns:rdf="http://www.w3.org/1999/02/22-rdf-syntax-ns#"
   xmlns:svg="http://www.w3.org/2000/svg"
   xmlns="http://www.w3.org/2000/svg"
   xmlns:xlink="http://www.w3.org/1999/xlink"
   xmlns:sodipodi="http://sodipodi.sourceforge.net/DTD/sodipodi-0.dtd"
   xmlns:inkscape="http://www.inkscape.org/namespaces/inkscape"
   id="svg2"
   version="1.1"
   inkscape:version="0.47 r22583"
   width="48"
   height="48"
   sodipodi:docname="exaile.png">
  <metadata
     id="metadata8">
    <rdf:RDF>
      <cc:Work
         rdf:about="">
        <dc:format>image/svg+xml</dc:format>
        <dc:type
           rdf:resource="http://purl.org/dc/dcmitype/StillImage" />
        <dc:title></dc:title>
      </cc:Work>
    </rdf:RDF>
  </metadata>
  <defs
     id="defs6">
    <inkscape:perspective
       sodipodi:type="inkscape:persp3d"
       inkscape:vp_x="0 : 0.5 : 1"
       inkscape:vp_y="0 : 1000 : 0"
       inkscape:vp_z="1 : 0.5 : 1"
       inkscape:persp3d-origin="0.5 : 0.33333333 : 1"
       id="perspective10" />
    <filter
       inkscape:collect="always"
       id="filter3656">
      <feGaussianBlur
         inkscape:collect="always"
         stdDeviation="1.1922581"
         id="feGaussianBlur3658" />
    </filter>
    <inkscape:perspective
       id="perspective2943"
       inkscape:persp3d-origin="0.5 : 0.33333333 : 1"
       inkscape:vp_z="1 : 0.5 : 1"
       inkscape:vp_y="0 : 1000 : 0"
       inkscape:vp_x="0 : 0.5 : 1"
       sodipodi:type="inkscape:persp3d" />
    <clipPath
       id="clipPath3754">
      <rect
         width="96"
         height="96"
         x="-100"
         y="-3.469447e-15"
         id="rect3756"
         style="fill:#ffffff;fill-opacity:1;stroke:none" />
    </clipPath>
    <linearGradient
       x1="70.782135"
       y1="83.017471"
       x2="75.404488"
       y2="22.02951"
       id="linearGradient4520"
       xlink:href="#linearGradient3277"
       gradientUnits="userSpaceOnUse"
       gradientTransform="matrix(1.0513134,0,0,1.0513134,-120.2285,31.416155)" />
    <linearGradient
       id="linearGradient3277">
      <stop
         id="stop3279"
         style="stop-color:#3d9119;stop-opacity:1"
         offset="0" />
      <stop
         id="stop3281"
         style="stop-color:#76e62b;stop-opacity:1"
         offset="1" />
    </linearGradient>
    <radialGradient
       cx="40.846539"
       cy="75.263962"
       r="14.672466"
       fx="40.846539"
       fy="75.263962"
       id="radialGradient4522"
       xlink:href="#linearGradient3266"
       gradientUnits="userSpaceOnUse"
       gradientTransform="matrix(0.9847961,0.02597927,-0.01823822,0.6913564,1.9937062,24.820256)" />
    <linearGradient
       id="linearGradient3266">
      <stop
         id="stop3269"
         style="stop-color:#87ff2b;stop-opacity:1"
         offset="0" />
      <stop
         id="stop3271"
         style="stop-color:#87ff2b;stop-opacity:0"
         offset="1" />
    </linearGradient>
    <radialGradient
       cx="40.846539"
       cy="75.263962"
       r="14.672466"
       fx="40.846539"
       fy="75.263962"
       id="radialGradient4524"
       xlink:href="#linearGradient3266"
       gradientUnits="userSpaceOnUse"
       gradientTransform="matrix(0.9847961,0.02597927,-0.01823822,0.6913564,1.9937062,24.820256)" />
    <linearGradient
       id="linearGradient2958">
      <stop
         id="stop2960"
         style="stop-color:#87ff2b;stop-opacity:1"
         offset="0" />
      <stop
         id="stop2962"
         style="stop-color:#87ff2b;stop-opacity:0"
         offset="1" />
    </linearGradient>
    <radialGradient
       cx="54.75"
       cy="25.072803"
       r="13"
       fx="54.75"
       fy="25.072803"
       id="radialGradient4526"
       xlink:href="#linearGradient3266"
       gradientUnits="userSpaceOnUse"
       gradientTransform="matrix(1.543369,0.28142051,-0.32722971,1.7945958,-138.17549,-6.0460513)" />
    <linearGradient
       id="linearGradient2965">
      <stop
         id="stop2967"
         style="stop-color:#87ff2b;stop-opacity:1"
         offset="0" />
      <stop
         id="stop2969"
         style="stop-color:#87ff2b;stop-opacity:0"
         offset="1" />
    </linearGradient>
    <radialGradient
       cx="56.496048"
       cy="31.701607"
       r="13"
       fx="56.496048"
       fy="31.701607"
       id="radialGradient4528"
       xlink:href="#linearGradient3266"
       gradientUnits="userSpaceOnUse"
       gradientTransform="matrix(0.88267832,0,-2.2566243e-8,1.115007,-69.080446,51.097006)" />
    <linearGradient
       id="linearGradient2972">
      <stop
         id="stop2974"
         style="stop-color:#87ff2b;stop-opacity:1"
         offset="0" />
      <stop
         id="stop2976"
         style="stop-color:#87ff2b;stop-opacity:0"
         offset="1" />
    </linearGradient>
    <inkscape:perspective
       id="perspective3003"
       inkscape:persp3d-origin="0.5 : 0.33333333 : 1"
       inkscape:vp_z="1 : 0.5 : 1"
       inkscape:vp_y="0 : 1000 : 0"
       inkscape:vp_x="0 : 0.5 : 1"
       sodipodi:type="inkscape:persp3d" />
    <linearGradient
       x1="32.251034"
       y1="6.1317081"
       x2="32.251034"
       y2="90.238609"
       id="linearGradient3760"
       xlink:href="#ButtonShadow-0"
       gradientUnits="userSpaceOnUse"
       gradientTransform="matrix(1.0238095,0,0,1.0119048,-1.1428571,-98.071429)" />
    <linearGradient
       x1="45.447727"
       y1="92.539597"
       x2="45.447727"
       y2="7.0165396"
       id="ButtonShadow-0"
       gradientUnits="userSpaceOnUse"
       gradientTransform="matrix(1.0058652,0,0,0.994169,100,0)">
      <stop
         id="stop3750-8"
         style="stop-color:#000000;stop-opacity:1"
         offset="0" />
      <stop
         id="stop3752-5"
         style="stop-color:#000000;stop-opacity:0.58823532"
         offset="1" />
    </linearGradient>
    <linearGradient
       x1="32.251034"
       y1="6.1317081"
       x2="32.251034"
       y2="90.238609"
       id="linearGradient3780"
       xlink:href="#ButtonShadow-0"
       gradientUnits="userSpaceOnUse"
       gradientTransform="matrix(1.0238095,0,0,1.0119048,-1.1428571,-98.071429)" />
    <linearGradient
       x1="45.447727"
       y1="92.539597"
       x2="45.447727"
       y2="7.0165396"
       id="linearGradient3012"
       gradientUnits="userSpaceOnUse"
       gradientTransform="matrix(1.0058652,0,0,0.994169,100,0)">
      <stop
         id="stop3014"
         style="stop-color:#000000;stop-opacity:1"
         offset="0" />
      <stop
         id="stop3016"
         style="stop-color:#000000;stop-opacity:0.58823532"
         offset="1" />
    </linearGradient>
    <linearGradient
       x1="32.251034"
       y1="6.1317081"
       x2="32.251034"
       y2="90.238609"
       id="linearGradient3772"
       xlink:href="#ButtonShadow-0"
       gradientUnits="userSpaceOnUse"
       gradientTransform="matrix(1.0238095,0,0,1.0119048,-1.1428571,-98.071429)" />
    <linearGradient
       x1="45.447727"
       y1="92.539597"
       x2="45.447727"
       y2="7.0165396"
       id="linearGradient3019"
       gradientUnits="userSpaceOnUse"
       gradientTransform="matrix(1.0058652,0,0,0.994169,100,0)">
      <stop
         id="stop3021"
         style="stop-color:#000000;stop-opacity:1"
         offset="0" />
      <stop
         id="stop3023"
         style="stop-color:#000000;stop-opacity:0.58823532"
         offset="1" />
    </linearGradient>
    <linearGradient
       x1="32.251034"
       y1="6.1317081"
       x2="32.251034"
       y2="90.238609"
       id="linearGradient3725"
       xlink:href="#ButtonShadow-0"
       gradientUnits="userSpaceOnUse"
       gradientTransform="matrix(1.0238095,0,0,1.0119048,-1.1428571,-98.071429)" />
    <linearGradient
       x1="45.447727"
       y1="92.539597"
       x2="45.447727"
       y2="7.0165396"
       id="linearGradient3026"
       gradientUnits="userSpaceOnUse"
       gradientTransform="matrix(1.0058652,0,0,0.994169,100,0)">
      <stop
         id="stop3028"
         style="stop-color:#000000;stop-opacity:1"
         offset="0" />
      <stop
         id="stop3030"
         style="stop-color:#000000;stop-opacity:0.58823532"
         offset="1" />
    </linearGradient>
    <linearGradient
       x1="32.251034"
       y1="6.1317081"
       x2="32.251034"
       y2="90.238609"
       id="linearGradient3721"
       xlink:href="#ButtonShadow-0"
       gradientUnits="userSpaceOnUse"
       gradientTransform="translate(0,-97)" />
    <linearGradient
       x1="45.447727"
       y1="92.539597"
       x2="45.447727"
       y2="7.0165396"
       id="linearGradient3033"
       gradientUnits="userSpaceOnUse"
       gradientTransform="matrix(1.0058652,0,0,0.994169,100,0)">
      <stop
         id="stop3035"
         style="stop-color:#000000;stop-opacity:1"
         offset="0" />
      <stop
         id="stop3037"
         style="stop-color:#000000;stop-opacity:0.58823532"
         offset="1" />
    </linearGradient>
    <linearGradient
       id="linearGradient4370">
      <stop
         id="stop4372"
         style="stop-color:#8a5b30;stop-opacity:1"
         offset="0" />
      <stop
         id="stop4374"
         style="stop-color:#8a5b30;stop-opacity:0"
         offset="1" />
    </linearGradient>
    <linearGradient
       id="linearGradient4289">
      <stop
         id="stop4291"
         style="stop-color:#996c3b;stop-opacity:1"
         offset="0" />
      <stop
         id="stop4293"
         style="stop-color:#c19e6d;stop-opacity:1"
         offset="1" />
    </linearGradient>
    <linearGradient
       id="linearGradient4426">
      <stop
         id="stop4428"
         style="stop-color:#71461e;stop-opacity:1"
         offset="0" />
      <stop
         id="stop4430"
         style="stop-color:#71461e;stop-opacity:0"
         offset="1" />
    </linearGradient>
    <linearGradient
       id="linearGradient3052">
      <stop
         id="stop3054"
         style="stop-color:#8a5b30;stop-opacity:1"
         offset="0" />
      <stop
         id="stop3056"
         style="stop-color:#8a5b30;stop-opacity:0"
         offset="1" />
    </linearGradient>
    <linearGradient
       id="linearGradient3737">
      <stop
         id="stop3739"
         style="stop-color:#ffffff;stop-opacity:1"
         offset="0" />
      <stop
         id="stop3741"
         style="stop-color:#ffffff;stop-opacity:0"
         offset="1" />
    </linearGradient>
    <linearGradient
       id="linearGradient3063">
      <stop
         id="stop3065"
         style="stop-color:#ffffff;stop-opacity:1"
         offset="0" />
      <stop
         id="stop3067"
         style="stop-color:#ffffff;stop-opacity:0"
         offset="1" />
    </linearGradient>
    <linearGradient
       id="linearGradient5092">
      <stop
         id="stop5094"
         style="stop-color:#be9f6a;stop-opacity:1"
         offset="0" />
      <stop
         id="stop5096"
         style="stop-color:#e5d2b2;stop-opacity:1"
         offset="1" />
    </linearGradient>
    <filter
       x="-0.31155673"
       y="-0.42628157"
       width="1.6231135"
       height="1.8525631"
       color-interpolation-filters="sRGB"
       id="filter4362">
      <feGaussianBlur
         id="feGaussianBlur4364"
         stdDeviation="6.2124381" />
    </filter>
    <linearGradient
       id="linearGradient4295">
      <stop
         id="stop4297"
         style="stop-color:#b88f56;stop-opacity:1"
         offset="0" />
      <stop
         id="stop4299"
         style="stop-color:#d9bd98;stop-opacity:1"
         offset="1" />
    </linearGradient>
    <linearGradient
       id="linearGradient3080">
      <stop
         id="stop3082"
         style="stop-color:#b88f56;stop-opacity:1"
         offset="0" />
      <stop
         id="stop3084"
         style="stop-color:#d9bd98;stop-opacity:1"
         offset="1" />
    </linearGradient>
    <linearGradient
       id="linearGradient3087">
      <stop
         id="stop3089"
         style="stop-color:#ffffff;stop-opacity:1"
         offset="0" />
      <stop
         id="stop3091"
         style="stop-color:#ffffff;stop-opacity:0"
         offset="1" />
    </linearGradient>
    <linearGradient
       id="linearGradient4414">
      <stop
         id="stop4416"
         style="stop-color:#dac3a2;stop-opacity:1"
         offset="0" />
      <stop
         id="stop4418"
         style="stop-color:#dac3a2;stop-opacity:0"
         offset="1" />
    </linearGradient>
    <linearGradient
       id="linearGradient3098">
      <stop
         id="stop3100"
         style="stop-color:#dac3a2;stop-opacity:1"
         offset="0" />
      <stop
         id="stop3102"
         style="stop-color:#dac3a2;stop-opacity:0"
         offset="1" />
    </linearGradient>
    <linearGradient
       id="linearGradient3928">
      <stop
         id="stop3930"
         style="stop-color:#3a240f;stop-opacity:1"
         offset="0" />
      <stop
         id="stop3932"
         style="stop-color:#3a240f;stop-opacity:0"
         offset="1" />
    </linearGradient>
    <linearGradient
       id="linearGradient3109">
      <stop
         id="stop3111"
         style="stop-color:#3a240f;stop-opacity:1"
         offset="0" />
      <stop
         id="stop3113"
         style="stop-color:#3a240f;stop-opacity:0"
         offset="1" />
    </linearGradient>
    <linearGradient
       x1="52.25"
       y1="47.247101"
       x2="52.25"
       y2="0.2393"
       id="linearGradient4309-3"
       gradientUnits="userSpaceOnUse">
      <stop
         id="stop4311-7"
         style="stop-color:#d8cab2;stop-opacity:1"
         offset="0" />
      <stop
         id="stop4321-4"
         style="stop-color:#d2b98c;stop-opacity:1"
         offset="0.45710954" />
      <stop
         id="stop4323-9"
         style="stop-color:#f9f7ef;stop-opacity:1"
         offset="0.48590001" />
      <stop
         id="stop4325-6"
         style="stop-color:#ffffff;stop-opacity:1"
         offset="0.49110001" />
      <stop
         id="stop4327-3"
         style="stop-color:#fbf9f4;stop-opacity:1"
         offset="0.49180001" />
      <stop
         id="stop4329-5"
         style="stop-color:#efe7d0;stop-opacity:1"
         offset="0.4946" />
      <stop
         id="stop4331-4"
         style="stop-color:#e4d6b0;stop-opacity:1"
         offset="0.49770001" />
      <stop
         id="stop4333-7"
         style="stop-color:#dac894;stop-opacity:1"
         offset="0.5011" />
      <stop
         id="stop4335-5"
         style="stop-color:#c7a572;stop-opacity:1"
         offset="0.50489998" />
      <stop
         id="stop4347-7"
         style="stop-color:#d7c198;stop-opacity:1"
         offset="1" />
    </linearGradient>
    <linearGradient
       inkscape:collect="always"
       xlink:href="#linearGradient4309-3"
       id="linearGradient3992"
       gradientUnits="userSpaceOnUse"
       gradientTransform="matrix(0.35068182,0,0,0.35068182,-91.508983,-15.015455)"
       x1="50.499405"
       y1="19.881863"
       x2="50.499405"
       y2="47.295406" />
    <linearGradient
       inkscape:collect="always"
       xlink:href="#linearGradient3928"
       id="linearGradient3995"
       gradientUnits="userSpaceOnUse"
       x1="46.795631"
       y1="60.307007"
       x2="46.795631"
       y2="6.0179305"
       gradientTransform="matrix(0.34378508,0,0,0.34378508,-89.687542,-16.994353)" />
    <linearGradient
       inkscape:collect="always"
       xlink:href="#linearGradient3928"
       id="linearGradient3998"
       gradientUnits="userSpaceOnUse"
       x1="48.40115"
       y1="61.990967"
       x2="48.40115"
       y2="4.6666145"
       gradientTransform="matrix(0.34378508,0,0,0.34378508,-89.687542,-16.994353)" />
    <linearGradient
       inkscape:collect="always"
       xlink:href="#linearGradient4414"
       id="linearGradient4002"
       gradientUnits="userSpaceOnUse"
       gradientTransform="matrix(-0.34378508,0,0,0.34378508,-56.654288,-16.994353)"
       x1="8.9651041"
       y1="44.040279"
       x2="8.9651041"
       y2="52.263294" />
    <linearGradient
       inkscape:collect="always"
       xlink:href="#linearGradient4414"
       id="linearGradient4005"
       gradientUnits="userSpaceOnUse"
       x1="8.9651041"
       y1="44.040279"
       x2="8.9651041"
       y2="52.263294"
       gradientTransform="matrix(0.34378508,0,0,0.34378508,-89.687542,-16.994353)" />
    <linearGradient
       inkscape:collect="always"
       xlink:href="#linearGradient3737"
       id="linearGradient4008"
       gradientUnits="userSpaceOnUse"
       x1="23.142857"
       y1="42"
       x2="66.964287"
       y2="6"
       gradientTransform="matrix(0.34378508,0,0,0.34378508,-89.687542,-16.994353)" />
    <linearGradient
       inkscape:collect="always"
       xlink:href="#linearGradient4295"
       id="linearGradient4011"
       gradientUnits="userSpaceOnUse"
       gradientTransform="matrix(-0.34378508,0,0,0.34378508,-56.684174,-16.994353)"
       x1="47.226776"
       y1="29.039698"
       x2="6.3304405"
       y2="18.081558" />
    <linearGradient
       inkscape:collect="always"
       xlink:href="#linearGradient4295"
       id="linearGradient4014"
       gradientUnits="userSpaceOnUse"
       x1="48"
       y1="42"
       x2="6.7812738"
       y2="18.202358"
       gradientTransform="matrix(0.34378508,0,0,0.34378508,-89.687542,-16.994353)" />
    <linearGradient
       inkscape:collect="always"
       xlink:href="#linearGradient5092"
       id="linearGradient4018"
       gradientUnits="userSpaceOnUse"
       x1="47.079498"
       y1="32.782871"
       x2="6.5962563"
       y2="9.4098616"
       gradientTransform="matrix(0.34378508,0,0,0.34378508,-89.687542,-16.994353)" />
    <linearGradient
       inkscape:collect="always"
       xlink:href="#linearGradient3737"
       id="linearGradient4021"
       gradientUnits="userSpaceOnUse"
       x1="10"
       y1="40.263424"
       x2="10"
       y2="89.666374"
       gradientTransform="matrix(0.34378508,0,0,0.34378508,-89.687542,-16.994353)" />
    <linearGradient
       inkscape:collect="always"
       xlink:href="#linearGradient3737"
       id="linearGradient4024"
       gradientUnits="userSpaceOnUse"
       gradientTransform="matrix(-0.34378508,0,0,0.34378508,-56.684174,-16.994353)"
       x1="10"
       y1="40.263424"
       x2="10"
       y2="89.666374" />
    <linearGradient
       inkscape:collect="always"
       xlink:href="#linearGradient4370"
       id="linearGradient4028"
       gradientUnits="userSpaceOnUse"
       gradientTransform="matrix(-0.34378508,0,0,0.34378508,-56.684174,-16.994353)"
       x1="8"
       y1="38.127232"
       x2="8"
       y2="87.029526" />
    <radialGradient
       inkscape:collect="always"
       xlink:href="#linearGradient4426"
       id="radialGradient4031"
       gradientUnits="userSpaceOnUse"
       gradientTransform="matrix(0.29832466,0,0,0.03274143,-87.505442,-4.5526073)"
       cx="48"
       cy="73.14563"
       fx="48"
       fy="73.14563"
       r="42" />
    <linearGradient
       inkscape:collect="always"
       xlink:href="#linearGradient4289"
       id="linearGradient4034"
       gradientUnits="userSpaceOnUse"
       x1="54.187183"
       y1="90"
       x2="54.187183"
       y2="39.852562"
       gradientTransform="matrix(0.34378508,0,0,0.34378508,-89.687542,-16.994353)" />
    <linearGradient
       inkscape:collect="always"
       xlink:href="#linearGradient4370"
       id="linearGradient4037"
       gradientUnits="userSpaceOnUse"
       x1="8"
       y1="38.127232"
       x2="8"
       y2="71.877235"
       gradientTransform="matrix(0.34378508,0,0,0.34378508,-89.687542,-16.994353)" />
  </defs>
  <sodipodi:namedview
     pagecolor="#ffffff"
     bordercolor="#666666"
     borderopacity="1"
     objecttolerance="10"
     gridtolerance="10"
     guidetolerance="10"
     inkscape:pageopacity="0"
     inkscape:pageshadow="2"
     inkscape:window-width="1280"
     inkscape:window-height="664"
     id="namedview4"
     showgrid="false"
     inkscape:zoom="2.5833333"
     inkscape:cx="-77.77045"
     inkscape:cy="56.414956"
     inkscape:window-x="0"
     inkscape:window-y="25"
     inkscape:window-maximized="1"
     inkscape:current-layer="svg2" />
  <g
     id="g4078">
    <path
       sodipodi:type="arc"
       style="fill:#000000;fill-opacity:1;stroke:#000000;stroke-width:2.40000010000000019;stroke-miterlimit:4;stroke-opacity:1;stroke-dasharray:none;filter:url(#filter3656)"
       id="path2822"
       sodipodi:cx="26.709677"
       sodipodi:cy="26.516129"
       sodipodi:rx="17.032259"
       sodipodi:ry="17.032259"
       d="m 43.741936,26.516129 a 17.032259,17.032259 0 1 1 -34.0645182,0 17.032259,17.032259 0 1 1 34.0645182,0 z"
       transform="matrix(1.0424628,0,0,1.0424628,-50.101911,-3.8356271)" />
    <path
       transform="matrix(1.0424628,0,0,1.0424628,-50.682556,-3.8356276)"
       d="m 43.741936,26.516129 a 17.032259,17.032259 0 1 1 -34.0645182,0 17.032259,17.032259 0 1 1 34.0645182,0 z"
       sodipodi:ry="17.032259"
       sodipodi:rx="17.032259"
       sodipodi:cy="26.516129"
       sodipodi:cx="26.709677"
       id="path2818"
       style="fill:#a9cd39;fill-opacity:1;stroke:none;stroke-width:2.40000010000000019;stroke-miterlimit:4;stroke-opacity:1;stroke-dasharray:none"
       sodipodi:type="arc" />
    <g
       transform="matrix(0.55419688,0,0,0.55419688,-26.415079,-31.155768)"
       id="layer6">
      <path
         style="opacity:0.05;fill:#000000;fill-opacity:1;stroke:none"
         id="path4715"
         d="m 38.90625,28.90625 c -1.233162,0.08965 -2.128617,0.995255 -2.5,1.90625 -0.349578,0.857507 -0.338301,1.743827 -0.25,2.53125 l -0.0625,0 0,30.375 c -6.903989,-0.613719 -14.349628,2.614273 -17.5,9.03125 -0.004,0.0081 0.0039,0.02317 0,0.03125 -2.374385,4.734334 0.0051,10.649224 4.75,12.75 0.01365,0.006 0.01756,0.02527 0.03125,0.03125 l 0,-0.03125 c 6.934948,3.188484 15.663066,1.316683 20.96875,-4.03125 0.01027,-0.01035 0.02101,-0.02087 0.03125,-0.03125 0.0121,-0.01076 0.01927,-0.02045 0.03125,-0.03125 1.82719,-1.647533 2.312519,-3.825908 3.3125,-5.09375 a 1.0816859,1.0816859 0 0 0 0.1875,-0.375 c 0.573246,-2.100056 0.170271,-4.125316 0.28125,-5.75 a 1.0816859,1.0816859 0 0 0 0,-0.0625 l 0,-17.625 L 63,54.375 63,71.78125 c -6.925948,-0.672557 -14.365195,2.625025 -17.53125,9.03125 -0.004,0.0081 0.004,0.02319 0,0.03125 -2.391709,4.748599 0.03896,10.676515 4.78125,12.78125 0.01365,0.0061 0.01757,0.02526 0.03125,0.03125 l 0,-0.03125 c 6.664168,3.082534 14.897138,1.366406 20.25,-3.40625 0.01724,-0.01537 0.04532,-0.01582 0.0625,-0.03125 L 70.5625,90.15625 c 2.047798,-1.620134 2.829642,-3.911238 3.875,-5.4375 a 1.0816859,1.0816859 0 0 0 0.03125,-0.0625 c 0.58677,-0.958525 0.644213,-1.993514 0.625,-2.875 -0.01921,-0.881486 -0.128694,-1.657367 -0.0625,-2.25 a 1.0816859,1.0816859 0 0 0 0.03125,-0.125 C 75.041658,64.938792 75.104222,50.473207 75.03125,36 A 1.0816859,1.0816859 0 0 0 75,35.8125 c -0.122919,-0.687972 -0.44933,-1.282268 -0.90625,-1.6875 -0.45692,-0.405232 -1.004409,-0.619041 -1.5,-0.75 C 71.602568,33.113081 70.631974,33.106596 70.0625,33 A 1.0816859,1.0816859 0 0 0 70,33 C 59.720359,31.666482 49.428801,30.198994 39.125,28.9375 a 1.0816859,1.0816859 0 0 0 -0.21875,-0.03125 z" />
      <path
         style="opacity:0.1;fill:#000000;fill-opacity:1;stroke:none"
         id="path4707"
         inkscape:connector-curvature="0"
         d="m 39,30 c -1.679787,0.122119 -1.992615,1.999325 -1.8125,3.351325 0,10.476642 0,20.953283 0,31.429925 -6.786915,-1.105158 -14.531074,2.135608 -17.618677,8.453808 -2.102946,4.155868 0.05148,9.491309 4.254712,11.327563 6.495586,3.001168 14.830233,1.203009 19.803628,-3.860271 1.558389,-1.366866 2.026111,-3.465865 3.247837,-5.01485 0.481365,-1.763456 0.09386,-3.688078 0.21875,-5.516406 0,-6.286198 0,-12.572396 0,-18.858594 5.666667,0.708333 11.333333,1.416667 17,2.125 0,6.479167 0,12.958333 0,19.4375 -6.804567,-1.17607 -14.542242,2.130465 -17.647154,8.441694 -2.116527,4.164714 0.07649,9.496688 4.277777,11.336657 6.231706,2.896891 14.118676,1.257688 19.157429,-3.269063 1.761149,-1.365076 2.467707,-3.565152 3.649448,-5.290538 0.843538,-1.377972 0.265329,-3.13438 0.4375,-4.675815 C 73.947902,64.946323 74.010438,50.466454 73.9375,36 73.592336,34.06813 71.327672,34.323438 69.865501,34.049745 59.576816,32.715054 49.289586,31.259754 39,30 z" />
      <path
         style="opacity:0.15;fill:#000000;fill-opacity:1;stroke:none"
         id="path4703"
         transform="translate(100,-1)"
         d="M -60.96875,32.1875 A 0.81343732,0.81343732 0 0 0 -61.625,33 l 0,0.84375 0,33.25 c -2.388698,-0.536097 -5.029263,-0.636373 -7.84375,0.125 -3.374991,0.912998 -6.234478,2.634696 -8.15625,4.8125 -1.925419,2.181938 -2.930215,4.944319 -2.21875,7.625 0.709547,2.67346 2.93918,4.547726 5.6875,5.46875 2.741661,0.918793 6.089315,0.9767 9.46875,0.0625 5.135724,-1.389304 8.953239,-4.70348 10.0625,-8.625 a 0.81343732,0.81343732 0 0 0 0.53125,-0.75 l 0,-0.75 0,-24.0625 19.375,2.40625 0,21.78125 c -2.391944,-0.542642 -5.053265,-0.669584 -7.875,0.09375 -3.379698,0.914272 -6.237209,2.669042 -8.15625,4.84375 -1.922689,2.178842 -2.929758,4.914788 -2.21875,7.59375 0.710813,2.678226 2.966683,4.57772 5.71875,5.5 2.745408,0.920049 6.064047,0.943832 9.4375,0.03125 5.138238,-1.389984 8.984874,-4.69693 10.09375,-8.625 a 0.81343732,0.81343732 0 0 0 0.5,-0.75 l 0,-0.75 0,-45.125 0,-0.65625 a 0.81343732,0.81343732 0 0 0 -0.6875,-0.8125 L -28.5625,36.4375 a 0.81343732,0.81343732 0 0 0 -0.03125,0 L -59.875,32.28125 -60.71875,32.1875 a 0.81343732,0.81343732 0 0 0 -0.25,0 z m 6.875,11.90625 2.8125,0.40625 -2.8125,-0.34375 0,-0.0625 z" />
      <path
         style="opacity:0.31000001;fill:#000000;fill-opacity:1;stroke:none"
         id="path4532"
         clip-path="url(#clipPath3754)"
         transform="translate(100,-1)"
         inkscape:connector-curvature="0"
         d="m -60.8125,33 0,0.84375 0,34.1875 C -63.291413,67.299394 -66.18859,67.17183 -69.25,68 c -3.237022,0.875675 -5.952991,2.52608 -7.75,4.5625 -1.797009,2.03642 -2.688605,4.515942 -2.0625,6.875 0.625809,2.357948 2.593729,4.047491 5.15625,4.90625 2.562521,0.858759 5.762981,0.938174 9,0.0625 5.178992,-1.401009 8.948765,-4.81552 9.71875,-8.59375 l 0.28125,0 0,-0.75 0,-25 21,2.625 0,23.4375 c -2.47975,-0.733086 -5.405582,-0.891146 -8.46875,-0.0625 -3.237021,0.875675 -5.95299,2.557331 -7.75,4.59375 -1.79701,2.036419 -2.688605,4.484689 -2.0625,6.84375 0.62581,2.357948 2.624979,4.078741 5.1875,4.9375 2.562521,0.858759 5.731731,0.906924 8.96875,0.03125 5.183055,-1.402108 8.984336,-4.811961 9.75,-8.59375 l 0.25,0 0,-0.75 0,-45.125 0,-0.65625 L -28.6875,37.25 -59.96875,33.09375 -60.8125,33 z m 5.90625,10.15625 21,2.96875 0,1.34375 -21,-2.59375 0,-1.71875 z" />
      <g
         id="g4513"
         transform="matrix(0.6394564,0,0,0.6394564,81.520854,-0.3027837)">
        <path
           style="fill:url(#linearGradient4520);fill-opacity:1;stroke:#34870e;stroke-width:2.34574246;stroke-miterlimit:4;stroke-opacity:1;stroke-dasharray:none"
           id="path3261"
           inkscape:connector-curvature="0"
           d="m -65.015175,50.278074 0,54.903746 c -3.855793,-1.50998 -8.894464,-1.76801 -14.09417,-0.36139 -9.717741,2.62883 -16.233352,10.00877 -14.521267,16.45962 1.712085,6.45086 10.979991,9.56093 20.697733,6.9321 8.256133,-2.23343 14.170779,-7.8963 14.718388,-13.50281 l 0.06571,0 0,-40.377001 35.186145,4.369521 0,39.09572 c -3.855791,-1.50998 -8.894464,-1.76801 -14.09417,-0.36139 -9.717739,2.62883 -16.233352,10.00876 -14.521267,16.45962 1.712087,6.45086 10.979991,9.56093 20.697733,6.9321 8.256135,-2.23343 14.170779,-7.8963 14.718388,-13.50281 l 0.06571,0 0,-70.542025 -48.918927,-6.505001 z m 6.866391,13.212595 35.186145,4.960885 0,4.435229 -35.186145,-4.369522 0,-5.026592 z" />
        <path
           style="fill:url(#radialGradient4522);fill-opacity:1;stroke:none"
           id="path2494"
           transform="matrix(1.0233043,-0.24105639,0.24105639,1.0233043,-138.19892,40.809487)"
           d="m 56.391766,82.480003 a 14.672467,9.2807773 0 1 1 -29.344933,0 14.672467,9.2807773 0 1 1 29.344933,0 z" />
        <path
           style="fill:url(#radialGradient4524);fill-opacity:1;stroke:none"
           id="path3278"
           transform="matrix(1.0233043,-0.24105639,0.24105639,1.0233043,-96.754882,53.447131)"
           d="m 56.391766,82.480003 a 14.672467,9.2807773 0 1 1 -29.344933,0 14.672467,9.2807773 0 1 1 29.344933,0 z" />
        <path
           style="fill:none;stroke:url(#radialGradient4526);stroke-width:3.12765646;stroke-linecap:butt;stroke-linejoin:miter;stroke-miterlimit:4;stroke-opacity:1;stroke-dasharray:none"
           id="path3282"
           inkscape:connector-curvature="0"
           d="m -61.35495,88.196416 0,-33.510614 24.18021,3.942425" />
        <path
           style="fill:none;stroke:url(#radialGradient4528);stroke-width:4.93222046;stroke-linecap:butt;stroke-linejoin:miter;stroke-miterlimit:4;stroke-opacity:1;stroke-dasharray:none"
           id="path3292"
           inkscape:connector-curvature="0"
           d="m -19.212614,107.89627 0,-42.617148" />
      </g>
    </g>
    <path
       id="path2820"
       d="M -27.752091,13.332826 -27.53603,34.506832 -8.738698,24.351951 -27.752091,13.332826 z"
       style="fill:#ffffff;stroke:#000000;stroke-width:1.11631668px;stroke-linecap:butt;stroke-linejoin:miter;stroke-opacity:1" />
  </g>
  <g
     id="g4045">
    <path
       transform="matrix(1.0424628,0,0,1.0424628,-116.34185,-4.9305021)"
       d="m 43.741936,26.516129 a 17.032259,17.032259 0 1 1 -34.0645182,0 17.032259,17.032259 0 1 1 34.0645182,0 z"
       sodipodi:ry="17.032259"
       sodipodi:rx="17.032259"
       sodipodi:cy="26.516129"
       sodipodi:cx="26.709677"
       id="path3660"
       style="fill:#000000;fill-opacity:1;stroke:#000000;stroke-width:2.4000001;stroke-miterlimit:4;stroke-opacity:1;stroke-dasharray:none;filter:url(#filter3656)"
       sodipodi:type="arc" />
    <path
       sodipodi:type="arc"
       style="fill:#a9cd39;fill-opacity:1;stroke:none"
       id="path3662"
       sodipodi:cx="26.709677"
       sodipodi:cy="26.516129"
       sodipodi:rx="17.032259"
       sodipodi:ry="17.032259"
       d="m 43.741936,26.516129 a 17.032259,17.032259 0 1 1 -34.0645182,0 17.032259,17.032259 0 1 1 34.0645182,0 z"
       transform="matrix(1.0424628,0,0,1.0424628,-116.92249,-4.9305026)" />
    <g
       transform="matrix(0.34378508,0,0,0.34378508,-89.687542,-16.994353)"
       style="display:inline"
       id="layer5">
      <path
         style="opacity:0.07999998;fill:url(#linearGradient3760);fill-opacity:1;fill-rule:nonzero;stroke:none;display:inline"
         id="path3786"
         transform="scale(1,-1)"
         d="m 12,-95.03125 c -5.5110903,0 -10.03125,4.52016 -10.03125,10.03125 l 0,71 c 0,5.5110902 4.5201598,10.03125 10.03125,10.03125 l 72,0 c 5.51109,0 10.03125,-4.5201597 10.03125,-10.03125 l 0,-71 c 0,-5.51109 -4.52016,-10.03125 -10.03125,-10.03125 l -72,0 z" />
      <path
         style="opacity:0.1;fill:url(#linearGradient3780);fill-opacity:1;fill-rule:nonzero;stroke:none;display:inline"
         id="path3778"
         transform="scale(1,-1)"
         d="m 12,-94.03125 c -4.971633,0 -9.03125,4.059617 -9.03125,9.03125 l 0,71 c 0,4.9716329 4.0596171,9.03125 9.03125,9.03125 l 72,0 c 4.971633,0 9.03125,-4.059617 9.03125,-9.03125 l 0,-71 c 0,-4.971633 -4.059617,-9.03125 -9.03125,-9.03125 l -72,0 z" />
      <path
         style="opacity:0.2;fill:url(#linearGradient3772);fill-opacity:1;fill-rule:nonzero;stroke:none;display:inline"
         id="path3770"
         transform="scale(1,-1)"
         d="m 12,-93 c -4.4091333,0 -8,3.590867 -8,8 l 0,71 c 0,4.4091333 3.5908667,8 8,8 l 72,0 c 4.409133,0 8,-3.5908667 8,-8 l 0,-71 c 0,-4.409133 -3.590867,-8 -8,-8 l -72,0 z" />
      <rect
         style="opacity:0.3;fill:url(#linearGradient3725);fill-opacity:1;fill-rule:nonzero;stroke:none;display:inline"
         id="rect3723"
         transform="scale(1,-1)"
         y="-92"
         x="5"
         ry="7"
         rx="7"
         height="85"
         width="86" />
      <rect
         style="opacity:0.45;fill:url(#linearGradient3721);fill-opacity:1;fill-rule:nonzero;stroke:none;display:inline"
         id="rect3716"
         transform="scale(1,-1)"
         y="-91"
         x="6"
         ry="6"
         rx="6"
         height="84"
         width="84" />
    </g>
    <path
       d="m -87.624832,-4.6180901 0,16.5016841 c 0,0.612543 0.266285,1.159143 0.687571,1.536289 l 0,-18.0379731 -0.687571,0 z"
       inkscape:connector-curvature="0"
       id="rect5138"
       style="fill:url(#linearGradient4037);fill-opacity:1;fill-rule:nonzero;stroke:none" />
    <rect
       width="28.877947"
       height="28.877947"
       rx="2.0627105"
       ry="2.0627105"
       x="-87.624832"
       y="-14.931643"
       id="rect2419"
       style="fill:url(#linearGradient4034);fill-opacity:1;fill-rule:nonzero;stroke:none" />
    <path
       d="m -87.624832,-4.6180901 0,0.6875701 c 0,1.1427416 0.919969,2.0627105 2.062711,2.0627105 l 24.752526,0 c 1.142741,0 2.06271,-0.9199689 2.06271,-2.0627105 l 0,-0.6875701 c 0,1.1427416 -0.919969,2.0627105 -2.06271,2.0627105 l -24.752526,0 c -1.142742,0 -2.062711,-0.9199689 -2.062711,-2.0627105 z"
       inkscape:connector-curvature="0"
       id="path3287"
       style="fill:url(#radialGradient4031);fill-opacity:1;fill-rule:nonzero;stroke:none" />
    <path
       d="m -58.746885,-4.6180901 0,16.5016841 c 0,0.612543 -0.266284,1.159143 -0.68757,1.536289 l 0,-18.0379731 0.68757,0 z"
       inkscape:connector-curvature="0"
       id="path4396"
       style="fill:url(#linearGradient4028);fill-opacity:1;fill-rule:nonzero;stroke:none" />
    <rect
       width="28.877947"
       height="8.2508421"
       rx="2.0627105"
       ry="2.0627105"
       x="-87.624832"
       y="-10.806222"
       id="rect2483"
       style="fill:#3c2510;fill-opacity:1;fill-rule:nonzero;stroke:none" />
    <path
       d="m -59.434455,-4.6180901 0,18.0379731 c -0.198314,0.177537 -0.431424,0.317345 -0.68757,0.408245 l 0,-18.4462181 0.68757,0 z"
       inkscape:connector-curvature="0"
       id="path4398"
       style="opacity:0.3;fill:url(#linearGradient4024);fill-opacity:1;fill-rule:nonzero;stroke:none" />
    <path
       d="m -86.937261,-4.6180901 0,18.0379731 c 0.198314,0.177537 0.431424,0.317345 0.68757,0.408245 l 0,-18.4462181 -0.68757,0 z"
       inkscape:connector-curvature="0"
       id="path4378"
       style="opacity:0.3;fill:url(#linearGradient4021);fill-opacity:1;fill-rule:nonzero;stroke:none" />
    <path
       d="m -85.562121,-14.931643 c -1.109251,0 -2.062711,0.776714 -2.062711,2.406496 l 0,0.68757 0,7.1013108 14.438974,0.011833 0,-10.2072098 -11.688693,0 -0.68757,0 z"
       inkscape:connector-curvature="0"
       id="path5055"
       style="fill:url(#linearGradient4018);fill-opacity:1;fill-rule:nonzero;stroke:none" />
    <rect
       width="47.855976"
       height="34.976532"
       rx="6"
       ry="6"
       x="12.753176"
       y="41.956837"
       transform="matrix(0.34378508,0,0,0.29414104,-89.687542,-14.043257)"
       id="rect4356"
       style="opacity:0.3;fill:#dac7a8;fill-opacity:1;fill-rule:nonzero;stroke:none;filter:url(#filter4362)" />
    <path
       d="m -85.562121,-14.931643 c -1.142742,0 -2.062711,0.919969 -2.062711,2.062711 l 0,8.2508419 c 0,1.1427416 0.919969,2.0627105 2.062711,2.0627105 l 12.376263,-0.6875702 0,-12.3762632 -12.376263,0.68757 z"
       inkscape:connector-curvature="0"
       id="rect2481"
       style="fill:url(#linearGradient4014);fill-opacity:1;fill-rule:nonzero;stroke:none" />
    <path
       d="m -60.809595,-14.931643 c 1.142741,0 2.06271,0.919969 2.06271,2.062711 l 0,8.2508419 c 0,1.1427416 -0.919969,2.0627105 -2.06271,2.0627105 l -12.376263,-0.6875702 0,-12.3762632 12.376263,0.68757 z"
       inkscape:connector-curvature="0"
       id="path3262"
       style="fill:url(#linearGradient4011);fill-opacity:1;fill-rule:nonzero;stroke:none" />
    <path
       d="m -85.562121,-14.931643 c -1.142742,0 -2.062711,0.919969 -2.062711,2.062711 l 0,8.2508419 c 0,1.1427416 0.919969,2.0627105 2.062711,2.0627105 l 12.376263,-0.6875702 12.376263,0.6875702 c 1.142741,0 2.06271,-0.9199689 2.06271,-2.0627105 l 0,-8.2508419 c 0,-1.142742 -0.919969,-2.062711 -2.06271,-2.062711 l -12.376263,-0.68757 -12.376263,0.68757 z m 0,0.687571 12.376263,-0.687571 12.376263,0.687571 c 0.772073,0 1.37514,0.603067 1.37514,1.37514 l 0,8.2508419 c 0,0.7720732 -0.603067,1.3751403 -1.37514,1.3751403 L -73.185858,-3.93052 -85.562121,-3.2429498 c -0.772073,0 -1.37514,-0.6030671 -1.37514,-1.3751403 l 0,-8.2508419 c 0,-0.772073 0.603067,-1.37514 1.37514,-1.37514 z"
       inkscape:connector-curvature="0"
       id="rect3266"
       style="opacity:0.3;fill:url(#linearGradient4008);fill-opacity:1;fill-rule:nonzero;stroke:none" />
    <path
       d="m -87.56048,-4.1763662 c 0.824779,1.9100146 0.651141,5.5129964 0.651141,5.5129964 l 0.629437,-0.086819 c -0.08682,-2.8216123 0.151932,-3.8634385 1.714672,-3.9068479 -2.464593,-0.4107655 -2.99525,-1.5193297 -2.99525,-1.5193297 z"
       inkscape:connector-curvature="0"
       id="path4404"
       style="fill:url(#linearGradient4005);fill-opacity:1;fill-rule:evenodd;stroke:none" />
    <path
       d="m -58.781349,-4.1763662 c -0.824779,1.9100146 -0.651142,5.5129964 -0.651142,5.5129964 l -0.629436,-0.086819 c 0.08682,-2.8216123 -0.151933,-3.8634385 -1.714672,-3.9068479 2.464592,-0.4107655 2.99525,-1.5193297 2.99525,-1.5193297 z"
       inkscape:connector-curvature="0"
       id="path4422"
       style="fill:url(#linearGradient4002);fill-opacity:1;fill-rule:evenodd;stroke:none" />
    <path
       d="m -71.081767,-14.587857 -4.166801,0 0.02069,8.2722332 0.04629,9.9483756 1.955051,-0.1700808 2.077789,-0.180601 0.01122,-1.9084104 0.03507,-7.6892834 0.02069,-8.2722332 z"
       inkscape:connector-curvature="0"
       id="path5008"
       style="opacity:0.5;fill:#3a240f;fill-opacity:1;display:inline" />
    <path
       d="m -75.356001,-15.232454 c 0.0014,-2.45e-4 -0.06589,0.01112 -0.06446,0.01074 0.0014,-3.75e-4 -0.0551,0.02199 -0.05372,0.02149 0.0014,-4.98e-4 -0.05505,0.02211 -0.05372,0.02149 0.0013,-6.22e-4 -0.04425,0.02223 -0.04297,0.02149 0.0013,-7.4e-4 -0.05492,0.03308 -0.05372,0.03223 0.0012,-8.49e-4 -0.0441,0.04393 -0.04297,0.04297 0.0011,-9.56e-4 -0.04401,0.03328 -0.04297,0.03223 0.001,-0.0011 -0.04391,0.04411 -0.04297,0.04297 9.28e-4,-0.0011 -0.03306,0.05494 -0.03223,0.05372 8.25e-4,-0.0012 -0.03295,0.04426 -0.03223,0.04297 7.22e-4,-0.0013 -0.02208,0.05506 -0.02149,0.05372 5.84e-4,-0.0013 -0.02196,0.05511 -0.02149,0.05372 4.81e-4,-0.0014 -0.01109,0.05515 -0.01074,0.05372 3.44e-4,-0.0014 -0.02171,0.05518 -0.02149,0.05372 2.21e-4,-0.0015 -8.9e-5,0.06593 0,0.06446 7.2e-5,-0.0012 2.65e-4,0.0283 0,0.04297 l 0,0.01074 0.02149,8.261585 0.04297,9.9482808 a 0.34577346,0.34577346 0 0 0 0,0.010743 c -1.4e-5,-8.595e-4 5.8e-5,0.033072 0,0.03223 -5.8e-5,-8.594e-4 1.01e-4,0.033069 0,0.03223 -1.01e-4,-8.251e-4 0.01089,0.033062 0.01074,0.03223 -1.44e-4,-8.25e-4 1.87e-4,0.033055 0,0.03223 -1.86e-4,-8.251e-4 0.01097,0.033041 0.01074,0.03223 -2.29e-4,-8.25e-4 0.01101,0.033031 0.01074,0.03223 -2.7e-4,-7.907e-4 0.01105,0.022274 0.01074,0.021487 -3.1e-4,-7.907e-4 0.01109,0.033 0.01074,0.03223 -3.43e-4,-7.563e-4 0.02188,0.032979 0.02149,0.03223 -3.78e-4,-7.564e-4 0.01117,0.032959 0.01074,0.03223 -4.12e-4,-7.219e-4 0.02195,0.022191 0.02149,0.021487 -4.81e-4,-7.22e-4 0.01124,0.03291 0.01074,0.03223 -5.16e-4,-6.875e-4 0.02202,0.02214 0.02149,0.021487 -5.5e-4,-6.532e-4 0.02205,0.032856 0.02149,0.03223 -5.5e-4,-6.189e-4 0.02209,0.022081 0.02149,0.021486 -5.85e-4,-5.844e-4 0.03286,0.02205 0.03223,0.021487 -6.19e-4,-5.501e-4 0.02214,0.022019 0.02149,0.021487 -6.53e-4,-5.157e-4 0.02217,0.021985 0.02149,0.021486 -6.88e-4,-4.813e-4 0.03294,0.021947 0.03223,0.021487 -7.22e-4,-4.469e-4 0.02221,0.01117 0.02149,0.010743 -7.22e-4,-4.126e-4 0.03298,0.021875 0.03223,0.021486 -7.56e-4,-3.781e-4 0.033,0.01109 0.03223,0.010743 -7.56e-4,-3.438e-4 0.03302,0.011053 0.03223,0.010743 -7.91e-4,-3.084e-4 0.03303,0.011011 0.03223,0.010743 -7.91e-4,-2.678e-4 0.03304,0.01097 0.03223,0.010743 -8.26e-4,-2.262e-4 0.03305,0.010929 0.03223,0.010743 -8.25e-4,-1.843e-4 0.03306,1.416e-4 0.03223,0 -8.25e-4,-1.417e-4 0.03307,0.010843 0.03223,0.010743 -8.25e-4,-9.9e-5 0.03307,5.57e-5 0.03223,0 -8.6e-4,-5.57e-5 0.03307,1.24e-5 0.03223,0 -8.6e-4,-1.23e-5 0.03307,-3.09e-5 0.03223,0 -8.6e-4,3.1e-5 0.03307,-7.42e-5 0.03223,0 l 1.955278,-0.1718925 2.073454,-0.1826358 c -3.07e-4,1.75e-5 0.0069,4.125e-4 0.01074,0 0.01521,-0.00162 0.04419,-1.846e-4 0.04297,0 -0.0015,2.307e-4 0.06595,-0.021858 0.06446,-0.021487 -0.0015,3.782e-4 0.05517,-0.011252 0.05372,-0.010743 -0.0014,5.157e-4 0.05511,-0.022129 0.05372,-0.021487 -0.0014,6.532e-4 0.05505,-0.033 0.05372,-0.03223 -0.0013,7.563e-4 0.05497,-0.03312 0.05372,-0.03223 -0.0012,8.938e-4 0.04414,-0.033234 0.04297,-0.03223 -0.0012,9.97e-4 0.04404,-0.044081 0.04297,-0.042973 -0.0011,0.0011 0.04393,-0.044175 0.04297,-0.042973 -9.63e-4,0.0012 0.03307,-0.055003 0.03223,-0.053716 -8.6e-4,0.00127 0.03295,-0.055076 0.03223,-0.053716 -7.22e-4,0.00138 0.03282,-0.055137 0.03223,-0.053716 -5.85e-4,0.00141 0.02194,-0.055186 0.02149,-0.053716 -4.47e-4,0.00148 0.01106,-0.055222 0.01074,-0.053717 -3.14e-4,0.00151 0.01092,-0.065987 0.01074,-0.06446 -1.73e-4,0.00151 3e-5,-0.055254 0,-0.053716 a 0.34577346,0.34577346 0 0 0 0,-0.010743 l 0.01074,-1.9015612 0.03223,-7.6921912 0.02149,-8.272328 c -2.5e-5,0.0016 -1.39e-4,-0.05536 0,-0.05372 1.4e-4,0.0016 -0.01104,-0.06608 -0.01074,-0.06446 3.03e-4,0.0016 -0.01121,-0.06604 -0.01074,-0.06446 4.47e-4,0.0016 -0.0221,-0.06599 -0.02149,-0.06446 6.19e-4,0.0015 -0.033,-0.05517 -0.03223,-0.05372 7.57e-4,0.0015 -0.03314,-0.05509 -0.03223,-0.05372 8.93e-4,0.0014 -0.03327,-0.05499 -0.03223,-0.05372 0.001,0.0013 -0.04414,-0.05488 -0.04297,-0.05372 0.0012,0.0012 -0.05499,-0.04402 -0.05372,-0.04297 0.0013,0.001 -0.05509,-0.03314 -0.05372,-0.03223 0.0014,9.11e-4 -0.05518,-0.033 -0.05372,-0.03223 0.0014,7.7e-4 -0.05524,-0.03285 -0.05372,-0.03223 0.0015,6.18e-4 -0.06604,-0.02195 -0.06446,-0.02149 0.0016,4.64e-4 -0.06608,-0.01105 -0.06446,-0.01074 0.0016,3.03e-4 -0.0661,-0.01088 -0.06446,-0.01074 0.0017,1.39e-4 -0.05536,2.5e-5 -0.05372,0 l -4.136164,0 c 8.94e-4,8.1e-5 -0.01508,7.87e-4 -0.03223,0 -0.01143,-5.26e-4 -0.02208,0 -0.02149,0 0.0015,0 -0.06595,1.35e-4 -0.06446,0 a 0.34577346,0.34577346 0 0 0 -0.02149,0 z"
       id="path3926"
       style="opacity:0.1;fill:url(#linearGradient3998);fill-opacity:1;display:inline" />
    <path
       d="m -75.248569,-14.888669 a 0.29633604,0.29633604 0 0 0 -0.300812,0.300812 l 0.02149,8.272328 0.04297,9.9482808 a 0.29633604,0.29633604 0 0 0 0.322299,0.2900687 l 1.955277,-0.1718926 2.084197,-0.1826358 a 0.29633604,0.29633604 0 0 0 0.279326,-0.2900687 l 0.01074,-1.9015612 0.03223,-7.6921912 0.02149,-8.272328 a 0.29633604,0.29633604 0 0 0 -0.300812,-0.300812 l -4.168394,0 z"
       id="path3922"
       style="opacity:0.2;fill:url(#linearGradient3995);fill-opacity:1;display:inline" />
    <path
       d="m -71.102457,-15.492475 -2.083401,-0.151933 -2.083401,0.151933 0.02069,8.8330661 0.04629,9.9483756 1.955051,-0.1700804 2.077789,-0.1806013 0.01122,-1.9084105 0.03507,-7.6892834 0.02069,-8.8330661 z"
       inkscape:connector-curvature="0"
       id="polygon120"
       style="fill:url(#linearGradient3992);fill-opacity:1;display:inline" />
    <rect
       width="0.34378508"
       height="12.278039"
       x="-73.52964"
       y="-15.57624"
       id="rect4363"
       style="opacity:0.2;fill:#8d6137;fill-opacity:1;fill-rule:nonzero;stroke:none;display:inline" />
    <rect
       width="0.34378508"
       height="12.278039"
       x="-73.18586"
       y="-15.57624"
       id="rect4365"
       style="opacity:0.2;fill:#ffffff;fill-opacity:1;fill-rule:nonzero;stroke:none;display:inline" />
    <text
       x="-82.73175"
       y="-6.0783143"
       id="text4274"
       xml:space="preserve"
       style="font-size:4.19152546px;font-style:normal;font-variant:normal;font-weight:bold;font-stretch:normal;text-align:start;line-height:120.00000477%;writing-mode:lr-tb;text-anchor:start;fill:#825023;fill-opacity:1;stroke:none;display:inline;font-family:BabelSans;-inkscape-font-specification:BabelSans Bold"
       sodipodi:linespacing="120%"><tspan
         x="-82.73175"
         y="-6.0783143"
         id="tspan4276">Guardar</tspan></text>
    <path
       d="m -93.628562,15.785697 0,7.79658 -5.197724,0 10.395444,12.994304 10.395443,-12.994304 -5.197723,0 0,-7.79658 -10.39544,0 z"
       inkscape:connector-curvature="0"
       id="path4278"
       style="fill:#825023;fill-opacity:1;fill-rule:nonzero;stroke:none;display:inline" />
  </g>
</svg>
